<mxfile host="Electron" modified="2025-04-03T14:27:55.599Z" agent="Mozilla/5.0 (Windows NT 10.0; Win64; x64) AppleWebKit/537.36 (KHTML, like Gecko) draw.io/24.4.0 Chrome/120.0.6099.109 Electron/28.1.0 Safari/537.36" etag="OkZgDaTOwIooLHgucfh-" version="24.4.0" type="device" pages="2">
  <diagram name="Overall block diagram" id="V-TUKnoeNBvrXeJQ17XT">
    <mxGraphModel dx="2578" dy="997" grid="0" gridSize="10" guides="1" tooltips="1" connect="1" arrows="1" fold="1" page="1" pageScale="1" pageWidth="850" pageHeight="1100" math="0" shadow="0">
      <root>
        <mxCell id="0" />
        <mxCell id="1" parent="0" />
        <mxCell id="teQcWFjBec7qC7DViaNI-1" value="&lt;b&gt;custom module&lt;/b&gt;" style="rounded=1;whiteSpace=wrap;html=1;fillColor=#ffe6cc;strokeColor=#d79b00;" parent="1" vertex="1">
          <mxGeometry x="436" y="653" width="120" height="60" as="geometry" />
        </mxCell>
        <mxCell id="teQcWFjBec7qC7DViaNI-2" value="&lt;b&gt;Ram2p.sv&lt;/b&gt;" style="rounded=1;whiteSpace=wrap;html=1;fillColor=#fff2cc;strokeColor=#d6b656;" parent="1" vertex="1">
          <mxGeometry x="436" y="443" width="120" height="60" as="geometry" />
        </mxCell>
        <mxCell id="zOxFu8eX7CpoIdhw1G43-1" style="edgeStyle=orthogonalEdgeStyle;rounded=0;orthogonalLoop=1;jettySize=auto;html=1;startArrow=classic;startFill=1;" parent="1" source="teQcWFjBec7qC7DViaNI-3" target="teQcWFjBec7qC7DViaNI-2" edge="1">
          <mxGeometry relative="1" as="geometry">
            <Array as="points">
              <mxPoint x="396" y="493" />
              <mxPoint x="396" y="473" />
            </Array>
          </mxGeometry>
        </mxCell>
        <mxCell id="zOxFu8eX7CpoIdhw1G43-2" style="edgeStyle=orthogonalEdgeStyle;rounded=0;orthogonalLoop=1;jettySize=auto;html=1;entryX=0;entryY=0.5;entryDx=0;entryDy=0;startArrow=classic;startFill=1;" parent="1" source="teQcWFjBec7qC7DViaNI-3" target="teQcWFjBec7qC7DViaNI-6" edge="1">
          <mxGeometry relative="1" as="geometry" />
        </mxCell>
        <mxCell id="zOxFu8eX7CpoIdhw1G43-3" style="edgeStyle=orthogonalEdgeStyle;rounded=0;orthogonalLoop=1;jettySize=auto;html=1;entryX=0;entryY=0.5;entryDx=0;entryDy=0;startArrow=classic;startFill=1;" parent="1" source="teQcWFjBec7qC7DViaNI-3" target="teQcWFjBec7qC7DViaNI-23" edge="1">
          <mxGeometry relative="1" as="geometry">
            <Array as="points">
              <mxPoint x="396" y="593" />
              <mxPoint x="396" y="613" />
            </Array>
          </mxGeometry>
        </mxCell>
        <mxCell id="zOxFu8eX7CpoIdhw1G43-5" style="edgeStyle=orthogonalEdgeStyle;rounded=0;orthogonalLoop=1;jettySize=auto;html=1;exitX=0.5;exitY=1;exitDx=0;exitDy=0;startArrow=classic;startFill=1;" parent="1" source="teQcWFjBec7qC7DViaNI-3" target="teQcWFjBec7qC7DViaNI-1" edge="1">
          <mxGeometry relative="1" as="geometry">
            <Array as="points">
              <mxPoint x="281" y="683" />
            </Array>
          </mxGeometry>
        </mxCell>
        <mxCell id="teQcWFjBec7qC7DViaNI-3" value="&lt;font style=&quot;font-size: 22px;&quot;&gt;&lt;b&gt;BUS.sv&lt;/b&gt;&lt;/font&gt;" style="rounded=1;whiteSpace=wrap;html=1;fillColor=#fff2cc;strokeColor=#d6b656;" parent="1" vertex="1">
          <mxGeometry x="206" y="429.25" width="150" height="227.5" as="geometry" />
        </mxCell>
        <mxCell id="teQcWFjBec7qC7DViaNI-5" style="edgeStyle=orthogonalEdgeStyle;rounded=0;orthogonalLoop=1;jettySize=auto;html=1;entryX=0;entryY=0.5;entryDx=0;entryDy=0;strokeWidth=3;startArrow=classic;startFill=1;" parent="1" source="teQcWFjBec7qC7DViaNI-4" target="teQcWFjBec7qC7DViaNI-3" edge="1">
          <mxGeometry relative="1" as="geometry" />
        </mxCell>
        <mxCell id="teQcWFjBec7qC7DViaNI-4" value="&lt;span style=&quot;font-size: 24px;&quot;&gt;&lt;b&gt;ibex_simple_cille_system&lt;/b&gt;&lt;/span&gt;" style="rounded=1;whiteSpace=wrap;html=1;fillColor=#dae8fc;strokeColor=#6c8ebf;" parent="1" vertex="1">
          <mxGeometry x="-204" y="448" width="340" height="190" as="geometry" />
        </mxCell>
        <mxCell id="teQcWFjBec7qC7DViaNI-6" value="&lt;b&gt;Timer.sv&lt;/b&gt;" style="rounded=1;whiteSpace=wrap;html=1;fillColor=#fff2cc;strokeColor=#d6b656;" parent="1" vertex="1">
          <mxGeometry x="436" y="513" width="120" height="60" as="geometry" />
        </mxCell>
        <mxCell id="teQcWFjBec7qC7DViaNI-23" value="&lt;b&gt;SimCtrl.sv&lt;/b&gt;" style="rounded=1;whiteSpace=wrap;html=1;fillColor=#fff2cc;strokeColor=#d6b656;" parent="1" vertex="1">
          <mxGeometry x="436" y="583" width="120" height="60" as="geometry" />
        </mxCell>
        <mxCell id="teQcWFjBec7qC7DViaNI-25" value="Modules" style="shape=umlFrame;whiteSpace=wrap;html=1;pointerEvents=0;" parent="1" vertex="1">
          <mxGeometry x="176" y="383" width="410" height="350" as="geometry" />
        </mxCell>
        <mxCell id="oAhusU45HDdvE4szduK1-1" value="" style="rounded=1;whiteSpace=wrap;html=1;fillColor=#dae8fc;strokeColor=#6c8ebf;" parent="1" vertex="1">
          <mxGeometry x="-404" y="233" width="40" height="40" as="geometry" />
        </mxCell>
        <mxCell id="oAhusU45HDdvE4szduK1-2" value="" style="rounded=1;whiteSpace=wrap;html=1;fillColor=#ffe6cc;strokeColor=#d79b00;" parent="1" vertex="1">
          <mxGeometry x="-404" y="283" width="40" height="40" as="geometry" />
        </mxCell>
        <mxCell id="oAhusU45HDdvE4szduK1-3" value="&lt;b&gt;&lt;font style=&quot;font-size: 17px;&quot;&gt;Custom module&lt;/font&gt;&lt;/b&gt;" style="text;html=1;align=center;verticalAlign=middle;resizable=0;points=[];autosize=1;strokeColor=none;fillColor=none;" parent="1" vertex="1">
          <mxGeometry x="-364" y="288" width="150" height="30" as="geometry" />
        </mxCell>
        <mxCell id="oAhusU45HDdvE4szduK1-4" value="" style="rounded=1;whiteSpace=wrap;html=1;fillColor=#fff2cc;strokeColor=#d6b656;" parent="1" vertex="1">
          <mxGeometry x="-404" y="333" width="40" height="40" as="geometry" />
        </mxCell>
        <mxCell id="oAhusU45HDdvE4szduK1-5" value="&lt;b&gt;&lt;font style=&quot;font-size: 17px;&quot;&gt;Premade modules&lt;/font&gt;&lt;/b&gt;" style="text;html=1;align=center;verticalAlign=middle;resizable=0;points=[];autosize=1;strokeColor=none;fillColor=none;" parent="1" vertex="1">
          <mxGeometry x="-364" y="338" width="170" height="30" as="geometry" />
        </mxCell>
        <mxCell id="oAhusU45HDdvE4szduK1-6" value="&lt;b&gt;&lt;font style=&quot;font-size: 17px;&quot;&gt;Custom integration&lt;/font&gt;&lt;/b&gt;" style="text;html=1;align=center;verticalAlign=middle;resizable=0;points=[];autosize=1;strokeColor=none;fillColor=none;" parent="1" vertex="1">
          <mxGeometry x="-364" y="238" width="180" height="30" as="geometry" />
        </mxCell>
        <mxCell id="oAhusU45HDdvE4szduK1-7" value="Max 4 slaves (for now)" style="text;html=1;align=center;verticalAlign=middle;resizable=0;points=[];autosize=1;strokeColor=none;fillColor=none;" parent="1" vertex="1">
          <mxGeometry x="336" y="399.25" width="140" height="30" as="geometry" />
        </mxCell>
        <mxCell id="oAhusU45HDdvE4szduK1-9" style="edgeStyle=orthogonalEdgeStyle;rounded=0;orthogonalLoop=1;jettySize=auto;html=1;entryX=0;entryY=0.5;entryDx=0;entryDy=0;" parent="1" source="oAhusU45HDdvE4szduK1-8" target="teQcWFjBec7qC7DViaNI-4" edge="1">
          <mxGeometry relative="1" as="geometry" />
        </mxCell>
        <mxCell id="oAhusU45HDdvE4szduK1-8" value="&lt;span style=&quot;font-size: 24px;&quot;&gt;&lt;b&gt;IBEX core&lt;/b&gt;&lt;/span&gt;" style="rounded=1;whiteSpace=wrap;html=1;fillColor=#f5f5f5;fontColor=#333333;strokeColor=#666666;" parent="1" vertex="1">
          <mxGeometry x="-464" y="488" width="160" height="110" as="geometry" />
        </mxCell>
        <mxCell id="oAhusU45HDdvE4szduK1-10" value="&lt;h1 style=&quot;margin-top: 0px;&quot;&gt;Custom Instantiation&lt;/h1&gt;&lt;p&gt;The RTL design of the core (ALU, Pipeline, controller...) is given from github. A custom instatiation let&#39;s us pick from several configurations as well as easily integrate periphreals (slaves).&lt;/p&gt;" style="text;html=1;whiteSpace=wrap;overflow=hidden;rounded=0;" parent="1" vertex="1">
          <mxGeometry x="-424" y="656.75" width="400" height="120" as="geometry" />
        </mxCell>
        <mxCell id="oAhusU45HDdvE4szduK1-11" value="Create instance" style="text;html=1;align=center;verticalAlign=middle;resizable=0;points=[];autosize=1;strokeColor=none;fillColor=none;" parent="1" vertex="1">
          <mxGeometry x="-314" y="513" width="110" height="30" as="geometry" />
        </mxCell>
        <mxCell id="oAhusU45HDdvE4szduK1-12" value="Base RTL files" style="shape=umlFrame;whiteSpace=wrap;html=1;pointerEvents=0;width=110;height=20;" parent="1" vertex="1">
          <mxGeometry x="-494" y="433" width="220" height="190" as="geometry" />
        </mxCell>
        <mxCell id="oAhusU45HDdvE4szduK1-13" value="Core instance" style="shape=umlFrame;whiteSpace=wrap;html=1;pointerEvents=0;width=110;height=20;" parent="1" vertex="1">
          <mxGeometry x="-234" y="408" width="410" height="245" as="geometry" />
        </mxCell>
      </root>
    </mxGraphModel>
  </diagram>
  <diagram id="4DC37cXnblaZ6kd_NXhu" name="Tool flow">
    <mxGraphModel dx="2280" dy="825" grid="0" gridSize="10" guides="1" tooltips="1" connect="1" arrows="1" fold="1" page="1" pageScale="1" pageWidth="850" pageHeight="1100" math="0" shadow="0">
      <root>
        <mxCell id="0" />
        <mxCell id="1" parent="0" />
        <mxCell id="ObuOHvK7sBFQrA4yK2qM-10" style="edgeStyle=orthogonalEdgeStyle;rounded=0;orthogonalLoop=1;jettySize=auto;html=1;entryX=0;entryY=0.5;entryDx=0;entryDy=0;" parent="1" source="ObuOHvK7sBFQrA4yK2qM-1" target="ObuOHvK7sBFQrA4yK2qM-11" edge="1">
          <mxGeometry relative="1" as="geometry">
            <mxPoint x="-342" y="520" as="targetPoint" />
          </mxGeometry>
        </mxCell>
        <mxCell id="ObuOHvK7sBFQrA4yK2qM-1" value="&lt;font style=&quot;font-size: 17px;&quot;&gt;&lt;b&gt;FuseSOC&lt;/b&gt;&lt;/font&gt;" style="rounded=1;whiteSpace=wrap;html=1;fillColor=#dae8fc;strokeColor=#6c8ebf;" parent="1" vertex="1">
          <mxGeometry x="-542" y="490" width="120" height="60" as="geometry" />
        </mxCell>
        <mxCell id="ObuOHvK7sBFQrA4yK2qM-17" style="edgeStyle=orthogonalEdgeStyle;rounded=0;orthogonalLoop=1;jettySize=auto;html=1;entryX=0;entryY=0.5;entryDx=0;entryDy=0;" parent="1" source="ObuOHvK7sBFQrA4yK2qM-2" target="ObuOHvK7sBFQrA4yK2qM-16" edge="1">
          <mxGeometry relative="1" as="geometry" />
        </mxCell>
        <mxCell id="ObuOHvK7sBFQrA4yK2qM-19" style="edgeStyle=orthogonalEdgeStyle;rounded=0;orthogonalLoop=1;jettySize=auto;html=1;" parent="1" source="ObuOHvK7sBFQrA4yK2qM-2" target="ObuOHvK7sBFQrA4yK2qM-18" edge="1">
          <mxGeometry relative="1" as="geometry" />
        </mxCell>
        <mxCell id="ObuOHvK7sBFQrA4yK2qM-2" value="&lt;font style=&quot;font-size: 17px;&quot;&gt;&lt;b&gt;Verilator&lt;/b&gt;&lt;/font&gt;" style="rounded=1;whiteSpace=wrap;html=1;fillColor=#dae8fc;strokeColor=#6c8ebf;" parent="1" vertex="1">
          <mxGeometry x="-122" y="490" width="120" height="60" as="geometry" />
        </mxCell>
        <mxCell id="ObuOHvK7sBFQrA4yK2qM-12" style="edgeStyle=orthogonalEdgeStyle;rounded=0;orthogonalLoop=1;jettySize=auto;html=1;entryX=0.5;entryY=0;entryDx=0;entryDy=0;" parent="1" source="ObuOHvK7sBFQrA4yK2qM-3" target="ObuOHvK7sBFQrA4yK2qM-1" edge="1">
          <mxGeometry relative="1" as="geometry" />
        </mxCell>
        <mxCell id="ObuOHvK7sBFQrA4yK2qM-3" value="RISC-V Toolchain" style="rounded=1;whiteSpace=wrap;html=1;fillColor=#dae8fc;strokeColor=#6c8ebf;" parent="1" vertex="1">
          <mxGeometry x="-522" y="400" width="80" height="60" as="geometry" />
        </mxCell>
        <mxCell id="ObuOHvK7sBFQrA4yK2qM-7" style="edgeStyle=orthogonalEdgeStyle;rounded=0;orthogonalLoop=1;jettySize=auto;html=1;entryX=0;entryY=0.5;entryDx=0;entryDy=0;" parent="1" source="ObuOHvK7sBFQrA4yK2qM-4" target="ObuOHvK7sBFQrA4yK2qM-1" edge="1">
          <mxGeometry relative="1" as="geometry" />
        </mxCell>
        <mxCell id="ObuOHvK7sBFQrA4yK2qM-4" value="&lt;font style=&quot;font-size: 17px;&quot;&gt;./rtl&lt;/font&gt;" style="rounded=1;whiteSpace=wrap;html=1;fillColor=#ffe6cc;strokeColor=#d79b00;" parent="1" vertex="1">
          <mxGeometry x="-752" y="390" width="140" height="70" as="geometry" />
        </mxCell>
        <mxCell id="ObuOHvK7sBFQrA4yK2qM-8" style="edgeStyle=orthogonalEdgeStyle;rounded=0;orthogonalLoop=1;jettySize=auto;html=1;entryX=0;entryY=0.5;entryDx=0;entryDy=0;" parent="1" source="ObuOHvK7sBFQrA4yK2qM-5" target="ObuOHvK7sBFQrA4yK2qM-1" edge="1">
          <mxGeometry relative="1" as="geometry" />
        </mxCell>
        <mxCell id="ObuOHvK7sBFQrA4yK2qM-5" value="&lt;font style=&quot;font-size: 17px;&quot;&gt;./shared&lt;/font&gt;" style="rounded=1;whiteSpace=wrap;html=1;fillColor=#ffe6cc;strokeColor=#d79b00;" parent="1" vertex="1">
          <mxGeometry x="-752" y="485" width="140" height="70" as="geometry" />
        </mxCell>
        <mxCell id="ObuOHvK7sBFQrA4yK2qM-9" style="edgeStyle=orthogonalEdgeStyle;rounded=0;orthogonalLoop=1;jettySize=auto;html=1;entryX=0;entryY=0.5;entryDx=0;entryDy=0;" parent="1" source="ObuOHvK7sBFQrA4yK2qM-6" target="ObuOHvK7sBFQrA4yK2qM-1" edge="1">
          <mxGeometry relative="1" as="geometry" />
        </mxCell>
        <mxCell id="ObuOHvK7sBFQrA4yK2qM-6" value="&lt;font style=&quot;font-size: 17px;&quot;&gt;.../simple_cille_system&lt;/font&gt;" style="rounded=1;whiteSpace=wrap;html=1;fillColor=#ffe6cc;strokeColor=#d79b00;" parent="1" vertex="1">
          <mxGeometry x="-812" y="578.5" width="200" height="80" as="geometry" />
        </mxCell>
        <mxCell id="ObuOHvK7sBFQrA4yK2qM-13" style="edgeStyle=orthogonalEdgeStyle;rounded=0;orthogonalLoop=1;jettySize=auto;html=1;" parent="1" source="ObuOHvK7sBFQrA4yK2qM-11" target="ObuOHvK7sBFQrA4yK2qM-2" edge="1">
          <mxGeometry relative="1" as="geometry" />
        </mxCell>
        <mxCell id="ObuOHvK7sBFQrA4yK2qM-11" value="&lt;font style=&quot;font-size: 17px;&quot;&gt;./build&lt;/font&gt;&lt;div style=&quot;font-size: 17px;&quot;&gt;&lt;font style=&quot;font-size: 17px;&quot;&gt;&lt;font style=&quot;font-size: 17px;&quot;&gt;.../&lt;/font&gt;&lt;span style=&quot;background-color: initial;&quot;&gt;simple_cille_system_0&lt;/span&gt;&lt;/font&gt;&lt;/div&gt;" style="rounded=1;whiteSpace=wrap;html=1;fillColor=#ffe6cc;strokeColor=#d79b00;" parent="1" vertex="1">
          <mxGeometry x="-382" y="470" width="210" height="100" as="geometry" />
        </mxCell>
        <mxCell id="ObuOHvK7sBFQrA4yK2qM-31" style="edgeStyle=orthogonalEdgeStyle;rounded=0;orthogonalLoop=1;jettySize=auto;html=1;entryX=0.5;entryY=0;entryDx=0;entryDy=0;" parent="1" source="ObuOHvK7sBFQrA4yK2qM-14" target="ObuOHvK7sBFQrA4yK2qM-29" edge="1">
          <mxGeometry relative="1" as="geometry" />
        </mxCell>
        <mxCell id="ObuOHvK7sBFQrA4yK2qM-14" value="&lt;span style=&quot;font-size: 17px;&quot;&gt;Hello_world.c&lt;/span&gt;" style="rounded=1;whiteSpace=wrap;html=1;" parent="1" vertex="1">
          <mxGeometry x="-127" y="230" width="130" height="70" as="geometry" />
        </mxCell>
        <mxCell id="ObuOHvK7sBFQrA4yK2qM-16" value="&lt;font style=&quot;font-size: 17px;&quot;&gt;wave_view.fst&lt;/font&gt;" style="rounded=1;whiteSpace=wrap;html=1;" parent="1" vertex="1">
          <mxGeometry x="68" y="530" width="120" height="60" as="geometry" />
        </mxCell>
        <mxCell id="ObuOHvK7sBFQrA4yK2qM-18" value="&lt;span style=&quot;font-size: 17px;&quot;&gt;simulation.log&lt;/span&gt;" style="rounded=1;whiteSpace=wrap;html=1;" parent="1" vertex="1">
          <mxGeometry x="68" y="460" width="120" height="60" as="geometry" />
        </mxCell>
        <mxCell id="ObuOHvK7sBFQrA4yK2qM-20" value="" style="rounded=1;whiteSpace=wrap;html=1;fillColor=#dae8fc;strokeColor=#6c8ebf;" parent="1" vertex="1">
          <mxGeometry x="-701" y="245" width="40" height="40" as="geometry" />
        </mxCell>
        <mxCell id="ObuOHvK7sBFQrA4yK2qM-21" value="" style="rounded=1;whiteSpace=wrap;html=1;fillColor=#ffe6cc;strokeColor=#d79b00;" parent="1" vertex="1">
          <mxGeometry x="-701" y="195" width="40" height="40" as="geometry" />
        </mxCell>
        <mxCell id="ObuOHvK7sBFQrA4yK2qM-22" value="&lt;b&gt;&lt;font style=&quot;font-size: 17px;&quot;&gt;Folders&lt;/font&gt;&lt;/b&gt;" style="text;html=1;align=center;verticalAlign=middle;resizable=0;points=[];autosize=1;strokeColor=none;fillColor=none;" parent="1" vertex="1">
          <mxGeometry x="-661" y="203" width="80" height="30" as="geometry" />
        </mxCell>
        <mxCell id="ObuOHvK7sBFQrA4yK2qM-23" value="&lt;b&gt;&lt;font style=&quot;font-size: 17px;&quot;&gt;SW tools&lt;/font&gt;&lt;/b&gt;" style="text;html=1;align=center;verticalAlign=middle;resizable=0;points=[];autosize=1;strokeColor=none;fillColor=none;" parent="1" vertex="1">
          <mxGeometry x="-661" y="250" width="100" height="30" as="geometry" />
        </mxCell>
        <mxCell id="ObuOHvK7sBFQrA4yK2qM-24" value="" style="rounded=1;whiteSpace=wrap;html=1;" parent="1" vertex="1">
          <mxGeometry x="-701" y="295" width="40" height="40" as="geometry" />
        </mxCell>
        <mxCell id="ObuOHvK7sBFQrA4yK2qM-25" value="&lt;b&gt;&lt;font style=&quot;font-size: 17px;&quot;&gt;Files&lt;/font&gt;&lt;/b&gt;" style="text;html=1;align=center;verticalAlign=middle;resizable=0;points=[];autosize=1;strokeColor=none;fillColor=none;" parent="1" vertex="1">
          <mxGeometry x="-651" y="300" width="60" height="30" as="geometry" />
        </mxCell>
        <mxCell id="ObuOHvK7sBFQrA4yK2qM-27" value="&lt;p style=&quot;margin-top: 0px;&quot;&gt;&lt;span style=&quot;font-size: 12px; font-weight: 400;&quot;&gt;Collects all needed rtl files. Builds the simulator binary based on the installed RISC-V Toolchain. Core configuration specified here.&lt;/span&gt;&lt;/p&gt;" style="text;html=1;whiteSpace=wrap;overflow=hidden;rounded=0;align=center;" parent="1" vertex="1">
          <mxGeometry x="-542" y="557" width="120" height="123" as="geometry" />
        </mxCell>
        <mxCell id="ObuOHvK7sBFQrA4yK2qM-28" value="Simulates the program running on the core by &quot;verilating&quot; both (turning everything into C++ code). Very fast and also does linting." style="text;html=1;whiteSpace=wrap;overflow=hidden;rounded=0;align=center;" parent="1" vertex="1">
          <mxGeometry x="-122" y="555" width="120" height="123" as="geometry" />
        </mxCell>
        <mxCell id="ObuOHvK7sBFQrA4yK2qM-32" style="edgeStyle=orthogonalEdgeStyle;rounded=0;orthogonalLoop=1;jettySize=auto;html=1;entryX=0.5;entryY=0;entryDx=0;entryDy=0;" parent="1" source="ObuOHvK7sBFQrA4yK2qM-29" target="ObuOHvK7sBFQrA4yK2qM-30" edge="1">
          <mxGeometry relative="1" as="geometry" />
        </mxCell>
        <mxCell id="ObuOHvK7sBFQrA4yK2qM-29" value="&lt;span style=&quot;font-size: 17px;&quot;&gt;Compiler&lt;/span&gt;" style="rounded=1;whiteSpace=wrap;html=1;fillColor=#dae8fc;strokeColor=#6c8ebf;" parent="1" vertex="1">
          <mxGeometry x="-109.5" y="320" width="95" height="50" as="geometry" />
        </mxCell>
        <mxCell id="ObuOHvK7sBFQrA4yK2qM-33" style="edgeStyle=orthogonalEdgeStyle;rounded=0;orthogonalLoop=1;jettySize=auto;html=1;entryX=0.5;entryY=0;entryDx=0;entryDy=0;" parent="1" source="ObuOHvK7sBFQrA4yK2qM-30" target="ObuOHvK7sBFQrA4yK2qM-2" edge="1">
          <mxGeometry relative="1" as="geometry" />
        </mxCell>
        <mxCell id="ObuOHvK7sBFQrA4yK2qM-30" value="&lt;span style=&quot;font-size: 17px;&quot;&gt;Hello_world.elf&lt;/span&gt;" style="rounded=1;whiteSpace=wrap;html=1;" parent="1" vertex="1">
          <mxGeometry x="-127" y="395" width="130" height="70" as="geometry" />
        </mxCell>
        <mxCell id="LN8Hd_BNQACXeJXh5rPA-3" style="edgeStyle=orthogonalEdgeStyle;rounded=0;orthogonalLoop=1;jettySize=auto;html=1;entryX=0.5;entryY=0;entryDx=0;entryDy=0;" edge="1" parent="1" source="LN8Hd_BNQACXeJXh5rPA-1" target="ObuOHvK7sBFQrA4yK2qM-11">
          <mxGeometry relative="1" as="geometry" />
        </mxCell>
        <mxCell id="LN8Hd_BNQACXeJXh5rPA-1" value="&lt;b&gt;Custom integration of core&lt;/b&gt;" style="text;html=1;align=center;verticalAlign=middle;resizable=0;points=[];autosize=1;strokeColor=none;fillColor=none;" vertex="1" parent="1">
          <mxGeometry x="-362.5" y="425" width="171" height="26" as="geometry" />
        </mxCell>
        <mxCell id="LN8Hd_BNQACXeJXh5rPA-5" value="From IBEX github" style="shape=umlFrame;whiteSpace=wrap;html=1;pointerEvents=0;width=115;height=20;" vertex="1" parent="1">
          <mxGeometry x="-826" y="348" width="263" height="217" as="geometry" />
        </mxCell>
        <mxCell id="LN8Hd_BNQACXeJXh5rPA-6" value="By Mads" style="shape=umlFrame;whiteSpace=wrap;html=1;pointerEvents=0;width=74;height=21;dashed=1;dashPattern=8 8;" vertex="1" parent="1">
          <mxGeometry x="-826" y="475" width="263" height="202" as="geometry" />
        </mxCell>
        <mxCell id="LN8Hd_BNQACXeJXh5rPA-8" value="Generates build" style="text;html=1;align=center;verticalAlign=middle;resizable=0;points=[];autosize=1;strokeColor=none;fillColor=none;" vertex="1" parent="1">
          <mxGeometry x="-480" y="468" width="103" height="26" as="geometry" />
        </mxCell>
        <mxCell id="LN8Hd_BNQACXeJXh5rPA-9" value="Simulates build" style="text;html=1;align=center;verticalAlign=middle;resizable=0;points=[];autosize=1;strokeColor=none;fillColor=none;" vertex="1" parent="1">
          <mxGeometry x="-170" y="468" width="99" height="26" as="geometry" />
        </mxCell>
      </root>
    </mxGraphModel>
  </diagram>
</mxfile>
